<?xml version="1.0" encoding="utf-8" standalone="no"?>
<!DOCTYPE svg PUBLIC "-//W3C//DTD SVG 1.1//EN"
  "http://www.w3.org/Graphics/SVG/1.1/DTD/svg11.dtd">
<!-- Created with matplotlib (https://matplotlib.org/) -->
<svg height="345.6pt" version="1.1" viewBox="0 0 460.8 345.6" width="460.8pt" xmlns="http://www.w3.org/2000/svg" xmlns:xlink="http://www.w3.org/1999/xlink">
 <defs>
  <style type="text/css">
*{stroke-linecap:butt;stroke-linejoin:round;}
  </style>
 </defs>
 <g id="figure_1">
  <g id="patch_1">
   <path d="M 0 345.6 
L 460.8 345.6 
L 460.8 0 
L 0 0 
z
" style="fill:#ffffff;"/>
  </g>
  <g id="axes_1">
   <g id="patch_2">
    <path d="M 57.6 307.584 
L 414.72 307.584 
L 414.72 41.472 
L 57.6 41.472 
z
" style="fill:#ffffff;"/>
   </g>
   <g id="matplotlib.axis_1">
    <g id="xtick_1">
     <g id="line2d_1">
      <defs>
       <path d="M 0 0 
L 0 3.5 
" id="m7541f44a4f" style="stroke:#000000;stroke-width:0.8;"/>
      </defs>
      <g>
       <use style="stroke:#000000;stroke-width:0.8;" x="57.6" xlink:href="#m7541f44a4f" y="307.584"/>
      </g>
     </g>
     <g id="text_1">
      <!-- 0.0 -->
      <defs>
       <path d="M 31.78125 66.40625 
Q 24.171875 66.40625 20.328125 58.90625 
Q 16.5 51.421875 16.5 36.375 
Q 16.5 21.390625 20.328125 13.890625 
Q 24.171875 6.390625 31.78125 6.390625 
Q 39.453125 6.390625 43.28125 13.890625 
Q 47.125 21.390625 47.125 36.375 
Q 47.125 51.421875 43.28125 58.90625 
Q 39.453125 66.40625 31.78125 66.40625 
z
M 31.78125 74.21875 
Q 44.046875 74.21875 50.515625 64.515625 
Q 56.984375 54.828125 56.984375 36.375 
Q 56.984375 17.96875 50.515625 8.265625 
Q 44.046875 -1.421875 31.78125 -1.421875 
Q 19.53125 -1.421875 13.0625 8.265625 
Q 6.59375 17.96875 6.59375 36.375 
Q 6.59375 54.828125 13.0625 64.515625 
Q 19.53125 74.21875 31.78125 74.21875 
z
" id="DejaVuSans-48"/>
       <path d="M 10.6875 12.40625 
L 21 12.40625 
L 21 0 
L 10.6875 0 
z
" id="DejaVuSans-46"/>
      </defs>
      <g transform="translate(49.648438 322.182437)scale(0.1 -0.1)">
       <use xlink:href="#DejaVuSans-48"/>
       <use x="63.623047" xlink:href="#DejaVuSans-46"/>
       <use x="95.410156" xlink:href="#DejaVuSans-48"/>
      </g>
     </g>
    </g>
    <g id="xtick_2">
     <g id="line2d_2">
      <g>
       <use style="stroke:#000000;stroke-width:0.8;" x="129.024" xlink:href="#m7541f44a4f" y="307.584"/>
      </g>
     </g>
     <g id="text_2">
      <!-- 0.2 -->
      <defs>
       <path d="M 19.1875 8.296875 
L 53.609375 8.296875 
L 53.609375 0 
L 7.328125 0 
L 7.328125 8.296875 
Q 12.9375 14.109375 22.625 23.890625 
Q 32.328125 33.6875 34.8125 36.53125 
Q 39.546875 41.84375 41.421875 45.53125 
Q 43.3125 49.21875 43.3125 52.78125 
Q 43.3125 58.59375 39.234375 62.25 
Q 35.15625 65.921875 28.609375 65.921875 
Q 23.96875 65.921875 18.8125 64.3125 
Q 13.671875 62.703125 7.8125 59.421875 
L 7.8125 69.390625 
Q 13.765625 71.78125 18.9375 73 
Q 24.125 74.21875 28.421875 74.21875 
Q 39.75 74.21875 46.484375 68.546875 
Q 53.21875 62.890625 53.21875 53.421875 
Q 53.21875 48.921875 51.53125 44.890625 
Q 49.859375 40.875 45.40625 35.40625 
Q 44.1875 33.984375 37.640625 27.21875 
Q 31.109375 20.453125 19.1875 8.296875 
z
" id="DejaVuSans-50"/>
      </defs>
      <g transform="translate(121.072438 322.182437)scale(0.1 -0.1)">
       <use xlink:href="#DejaVuSans-48"/>
       <use x="63.623047" xlink:href="#DejaVuSans-46"/>
       <use x="95.410156" xlink:href="#DejaVuSans-50"/>
      </g>
     </g>
    </g>
    <g id="xtick_3">
     <g id="line2d_3">
      <g>
       <use style="stroke:#000000;stroke-width:0.8;" x="200.448" xlink:href="#m7541f44a4f" y="307.584"/>
      </g>
     </g>
     <g id="text_3">
      <!-- 0.4 -->
      <defs>
       <path d="M 37.796875 64.3125 
L 12.890625 25.390625 
L 37.796875 25.390625 
z
M 35.203125 72.90625 
L 47.609375 72.90625 
L 47.609375 25.390625 
L 58.015625 25.390625 
L 58.015625 17.1875 
L 47.609375 17.1875 
L 47.609375 0 
L 37.796875 0 
L 37.796875 17.1875 
L 4.890625 17.1875 
L 4.890625 26.703125 
z
" id="DejaVuSans-52"/>
      </defs>
      <g transform="translate(192.496438 322.182437)scale(0.1 -0.1)">
       <use xlink:href="#DejaVuSans-48"/>
       <use x="63.623047" xlink:href="#DejaVuSans-46"/>
       <use x="95.410156" xlink:href="#DejaVuSans-52"/>
      </g>
     </g>
    </g>
    <g id="xtick_4">
     <g id="line2d_4">
      <g>
       <use style="stroke:#000000;stroke-width:0.8;" x="271.872" xlink:href="#m7541f44a4f" y="307.584"/>
      </g>
     </g>
     <g id="text_4">
      <!-- 0.6 -->
      <defs>
       <path d="M 33.015625 40.375 
Q 26.375 40.375 22.484375 35.828125 
Q 18.609375 31.296875 18.609375 23.390625 
Q 18.609375 15.53125 22.484375 10.953125 
Q 26.375 6.390625 33.015625 6.390625 
Q 39.65625 6.390625 43.53125 10.953125 
Q 47.40625 15.53125 47.40625 23.390625 
Q 47.40625 31.296875 43.53125 35.828125 
Q 39.65625 40.375 33.015625 40.375 
z
M 52.59375 71.296875 
L 52.59375 62.3125 
Q 48.875 64.0625 45.09375 64.984375 
Q 41.3125 65.921875 37.59375 65.921875 
Q 27.828125 65.921875 22.671875 59.328125 
Q 17.53125 52.734375 16.796875 39.40625 
Q 19.671875 43.65625 24.015625 45.921875 
Q 28.375 48.1875 33.59375 48.1875 
Q 44.578125 48.1875 50.953125 41.515625 
Q 57.328125 34.859375 57.328125 23.390625 
Q 57.328125 12.15625 50.6875 5.359375 
Q 44.046875 -1.421875 33.015625 -1.421875 
Q 20.359375 -1.421875 13.671875 8.265625 
Q 6.984375 17.96875 6.984375 36.375 
Q 6.984375 53.65625 15.1875 63.9375 
Q 23.390625 74.21875 37.203125 74.21875 
Q 40.921875 74.21875 44.703125 73.484375 
Q 48.484375 72.75 52.59375 71.296875 
z
" id="DejaVuSans-54"/>
      </defs>
      <g transform="translate(263.920438 322.182437)scale(0.1 -0.1)">
       <use xlink:href="#DejaVuSans-48"/>
       <use x="63.623047" xlink:href="#DejaVuSans-46"/>
       <use x="95.410156" xlink:href="#DejaVuSans-54"/>
      </g>
     </g>
    </g>
    <g id="xtick_5">
     <g id="line2d_5">
      <g>
       <use style="stroke:#000000;stroke-width:0.8;" x="343.296" xlink:href="#m7541f44a4f" y="307.584"/>
      </g>
     </g>
     <g id="text_5">
      <!-- 0.8 -->
      <defs>
       <path d="M 31.78125 34.625 
Q 24.75 34.625 20.71875 30.859375 
Q 16.703125 27.09375 16.703125 20.515625 
Q 16.703125 13.921875 20.71875 10.15625 
Q 24.75 6.390625 31.78125 6.390625 
Q 38.8125 6.390625 42.859375 10.171875 
Q 46.921875 13.96875 46.921875 20.515625 
Q 46.921875 27.09375 42.890625 30.859375 
Q 38.875 34.625 31.78125 34.625 
z
M 21.921875 38.8125 
Q 15.578125 40.375 12.03125 44.71875 
Q 8.5 49.078125 8.5 55.328125 
Q 8.5 64.0625 14.71875 69.140625 
Q 20.953125 74.21875 31.78125 74.21875 
Q 42.671875 74.21875 48.875 69.140625 
Q 55.078125 64.0625 55.078125 55.328125 
Q 55.078125 49.078125 51.53125 44.71875 
Q 48 40.375 41.703125 38.8125 
Q 48.828125 37.15625 52.796875 32.3125 
Q 56.78125 27.484375 56.78125 20.515625 
Q 56.78125 9.90625 50.3125 4.234375 
Q 43.84375 -1.421875 31.78125 -1.421875 
Q 19.734375 -1.421875 13.25 4.234375 
Q 6.78125 9.90625 6.78125 20.515625 
Q 6.78125 27.484375 10.78125 32.3125 
Q 14.796875 37.15625 21.921875 38.8125 
z
M 18.3125 54.390625 
Q 18.3125 48.734375 21.84375 45.5625 
Q 25.390625 42.390625 31.78125 42.390625 
Q 38.140625 42.390625 41.71875 45.5625 
Q 45.3125 48.734375 45.3125 54.390625 
Q 45.3125 60.0625 41.71875 63.234375 
Q 38.140625 66.40625 31.78125 66.40625 
Q 25.390625 66.40625 21.84375 63.234375 
Q 18.3125 60.0625 18.3125 54.390625 
z
" id="DejaVuSans-56"/>
      </defs>
      <g transform="translate(335.344438 322.182437)scale(0.1 -0.1)">
       <use xlink:href="#DejaVuSans-48"/>
       <use x="63.623047" xlink:href="#DejaVuSans-46"/>
       <use x="95.410156" xlink:href="#DejaVuSans-56"/>
      </g>
     </g>
    </g>
    <g id="xtick_6">
     <g id="line2d_6">
      <g>
       <use style="stroke:#000000;stroke-width:0.8;" x="414.72" xlink:href="#m7541f44a4f" y="307.584"/>
      </g>
     </g>
     <g id="text_6">
      <!-- 1.0 -->
      <defs>
       <path d="M 12.40625 8.296875 
L 28.515625 8.296875 
L 28.515625 63.921875 
L 10.984375 60.40625 
L 10.984375 69.390625 
L 28.421875 72.90625 
L 38.28125 72.90625 
L 38.28125 8.296875 
L 54.390625 8.296875 
L 54.390625 0 
L 12.40625 0 
z
" id="DejaVuSans-49"/>
      </defs>
      <g transform="translate(406.768438 322.182437)scale(0.1 -0.1)">
       <use xlink:href="#DejaVuSans-49"/>
       <use x="63.623047" xlink:href="#DejaVuSans-46"/>
       <use x="95.410156" xlink:href="#DejaVuSans-48"/>
      </g>
     </g>
    </g>
    <g id="text_7">
     <!-- False Positive Rate -->
     <defs>
      <path d="M 9.8125 72.90625 
L 51.703125 72.90625 
L 51.703125 64.59375 
L 19.671875 64.59375 
L 19.671875 43.109375 
L 48.578125 43.109375 
L 48.578125 34.8125 
L 19.671875 34.8125 
L 19.671875 0 
L 9.8125 0 
z
" id="DejaVuSans-70"/>
      <path d="M 34.28125 27.484375 
Q 23.390625 27.484375 19.1875 25 
Q 14.984375 22.515625 14.984375 16.5 
Q 14.984375 11.71875 18.140625 8.90625 
Q 21.296875 6.109375 26.703125 6.109375 
Q 34.1875 6.109375 38.703125 11.40625 
Q 43.21875 16.703125 43.21875 25.484375 
L 43.21875 27.484375 
z
M 52.203125 31.203125 
L 52.203125 0 
L 43.21875 0 
L 43.21875 8.296875 
Q 40.140625 3.328125 35.546875 0.953125 
Q 30.953125 -1.421875 24.3125 -1.421875 
Q 15.921875 -1.421875 10.953125 3.296875 
Q 6 8.015625 6 15.921875 
Q 6 25.140625 12.171875 29.828125 
Q 18.359375 34.515625 30.609375 34.515625 
L 43.21875 34.515625 
L 43.21875 35.40625 
Q 43.21875 41.609375 39.140625 45 
Q 35.0625 48.390625 27.6875 48.390625 
Q 23 48.390625 18.546875 47.265625 
Q 14.109375 46.140625 10.015625 43.890625 
L 10.015625 52.203125 
Q 14.9375 54.109375 19.578125 55.046875 
Q 24.21875 56 28.609375 56 
Q 40.484375 56 46.34375 49.84375 
Q 52.203125 43.703125 52.203125 31.203125 
z
" id="DejaVuSans-97"/>
      <path d="M 9.421875 75.984375 
L 18.40625 75.984375 
L 18.40625 0 
L 9.421875 0 
z
" id="DejaVuSans-108"/>
      <path d="M 44.28125 53.078125 
L 44.28125 44.578125 
Q 40.484375 46.53125 36.375 47.5 
Q 32.28125 48.484375 27.875 48.484375 
Q 21.1875 48.484375 17.84375 46.4375 
Q 14.5 44.390625 14.5 40.28125 
Q 14.5 37.15625 16.890625 35.375 
Q 19.28125 33.59375 26.515625 31.984375 
L 29.59375 31.296875 
Q 39.15625 29.25 43.1875 25.515625 
Q 47.21875 21.78125 47.21875 15.09375 
Q 47.21875 7.46875 41.1875 3.015625 
Q 35.15625 -1.421875 24.609375 -1.421875 
Q 20.21875 -1.421875 15.453125 -0.5625 
Q 10.6875 0.296875 5.421875 2 
L 5.421875 11.28125 
Q 10.40625 8.6875 15.234375 7.390625 
Q 20.0625 6.109375 24.8125 6.109375 
Q 31.15625 6.109375 34.5625 8.28125 
Q 37.984375 10.453125 37.984375 14.40625 
Q 37.984375 18.0625 35.515625 20.015625 
Q 33.0625 21.96875 24.703125 23.78125 
L 21.578125 24.515625 
Q 13.234375 26.265625 9.515625 29.90625 
Q 5.8125 33.546875 5.8125 39.890625 
Q 5.8125 47.609375 11.28125 51.796875 
Q 16.75 56 26.8125 56 
Q 31.78125 56 36.171875 55.265625 
Q 40.578125 54.546875 44.28125 53.078125 
z
" id="DejaVuSans-115"/>
      <path d="M 56.203125 29.59375 
L 56.203125 25.203125 
L 14.890625 25.203125 
Q 15.484375 15.921875 20.484375 11.0625 
Q 25.484375 6.203125 34.421875 6.203125 
Q 39.59375 6.203125 44.453125 7.46875 
Q 49.3125 8.734375 54.109375 11.28125 
L 54.109375 2.78125 
Q 49.265625 0.734375 44.1875 -0.34375 
Q 39.109375 -1.421875 33.890625 -1.421875 
Q 20.796875 -1.421875 13.15625 6.1875 
Q 5.515625 13.8125 5.515625 26.8125 
Q 5.515625 40.234375 12.765625 48.109375 
Q 20.015625 56 32.328125 56 
Q 43.359375 56 49.78125 48.890625 
Q 56.203125 41.796875 56.203125 29.59375 
z
M 47.21875 32.234375 
Q 47.125 39.59375 43.09375 43.984375 
Q 39.0625 48.390625 32.421875 48.390625 
Q 24.90625 48.390625 20.390625 44.140625 
Q 15.875 39.890625 15.1875 32.171875 
z
" id="DejaVuSans-101"/>
      <path id="DejaVuSans-32"/>
      <path d="M 19.671875 64.796875 
L 19.671875 37.40625 
L 32.078125 37.40625 
Q 38.96875 37.40625 42.71875 40.96875 
Q 46.484375 44.53125 46.484375 51.125 
Q 46.484375 57.671875 42.71875 61.234375 
Q 38.96875 64.796875 32.078125 64.796875 
z
M 9.8125 72.90625 
L 32.078125 72.90625 
Q 44.34375 72.90625 50.609375 67.359375 
Q 56.890625 61.8125 56.890625 51.125 
Q 56.890625 40.328125 50.609375 34.8125 
Q 44.34375 29.296875 32.078125 29.296875 
L 19.671875 29.296875 
L 19.671875 0 
L 9.8125 0 
z
" id="DejaVuSans-80"/>
      <path d="M 30.609375 48.390625 
Q 23.390625 48.390625 19.1875 42.75 
Q 14.984375 37.109375 14.984375 27.296875 
Q 14.984375 17.484375 19.15625 11.84375 
Q 23.34375 6.203125 30.609375 6.203125 
Q 37.796875 6.203125 41.984375 11.859375 
Q 46.1875 17.53125 46.1875 27.296875 
Q 46.1875 37.015625 41.984375 42.703125 
Q 37.796875 48.390625 30.609375 48.390625 
z
M 30.609375 56 
Q 42.328125 56 49.015625 48.375 
Q 55.71875 40.765625 55.71875 27.296875 
Q 55.71875 13.875 49.015625 6.21875 
Q 42.328125 -1.421875 30.609375 -1.421875 
Q 18.84375 -1.421875 12.171875 6.21875 
Q 5.515625 13.875 5.515625 27.296875 
Q 5.515625 40.765625 12.171875 48.375 
Q 18.84375 56 30.609375 56 
z
" id="DejaVuSans-111"/>
      <path d="M 9.421875 54.6875 
L 18.40625 54.6875 
L 18.40625 0 
L 9.421875 0 
z
M 9.421875 75.984375 
L 18.40625 75.984375 
L 18.40625 64.59375 
L 9.421875 64.59375 
z
" id="DejaVuSans-105"/>
      <path d="M 18.3125 70.21875 
L 18.3125 54.6875 
L 36.8125 54.6875 
L 36.8125 47.703125 
L 18.3125 47.703125 
L 18.3125 18.015625 
Q 18.3125 11.328125 20.140625 9.421875 
Q 21.96875 7.515625 27.59375 7.515625 
L 36.8125 7.515625 
L 36.8125 0 
L 27.59375 0 
Q 17.1875 0 13.234375 3.875 
Q 9.28125 7.765625 9.28125 18.015625 
L 9.28125 47.703125 
L 2.6875 47.703125 
L 2.6875 54.6875 
L 9.28125 54.6875 
L 9.28125 70.21875 
z
" id="DejaVuSans-116"/>
      <path d="M 2.984375 54.6875 
L 12.5 54.6875 
L 29.59375 8.796875 
L 46.6875 54.6875 
L 56.203125 54.6875 
L 35.6875 0 
L 23.484375 0 
z
" id="DejaVuSans-118"/>
      <path d="M 44.390625 34.1875 
Q 47.5625 33.109375 50.5625 29.59375 
Q 53.5625 26.078125 56.59375 19.921875 
L 66.609375 0 
L 56 0 
L 46.6875 18.703125 
Q 43.0625 26.03125 39.671875 28.421875 
Q 36.28125 30.8125 30.421875 30.8125 
L 19.671875 30.8125 
L 19.671875 0 
L 9.8125 0 
L 9.8125 72.90625 
L 32.078125 72.90625 
Q 44.578125 72.90625 50.734375 67.671875 
Q 56.890625 62.453125 56.890625 51.90625 
Q 56.890625 45.015625 53.6875 40.46875 
Q 50.484375 35.9375 44.390625 34.1875 
z
M 19.671875 64.796875 
L 19.671875 38.921875 
L 32.078125 38.921875 
Q 39.203125 38.921875 42.84375 42.21875 
Q 46.484375 45.515625 46.484375 51.90625 
Q 46.484375 58.296875 42.84375 61.546875 
Q 39.203125 64.796875 32.078125 64.796875 
z
" id="DejaVuSans-82"/>
     </defs>
     <g transform="translate(188.954531 335.860562)scale(0.1 -0.1)">
      <use xlink:href="#DejaVuSans-70"/>
      <use x="57.378906" xlink:href="#DejaVuSans-97"/>
      <use x="118.658203" xlink:href="#DejaVuSans-108"/>
      <use x="146.441406" xlink:href="#DejaVuSans-115"/>
      <use x="198.541016" xlink:href="#DejaVuSans-101"/>
      <use x="260.064453" xlink:href="#DejaVuSans-32"/>
      <use x="291.851562" xlink:href="#DejaVuSans-80"/>
      <use x="352.107422" xlink:href="#DejaVuSans-111"/>
      <use x="413.289062" xlink:href="#DejaVuSans-115"/>
      <use x="465.388672" xlink:href="#DejaVuSans-105"/>
      <use x="493.171875" xlink:href="#DejaVuSans-116"/>
      <use x="532.380859" xlink:href="#DejaVuSans-105"/>
      <use x="560.164062" xlink:href="#DejaVuSans-118"/>
      <use x="619.34375" xlink:href="#DejaVuSans-101"/>
      <use x="680.867188" xlink:href="#DejaVuSans-32"/>
      <use x="712.654297" xlink:href="#DejaVuSans-82"/>
      <use x="782.105469" xlink:href="#DejaVuSans-97"/>
      <use x="843.384766" xlink:href="#DejaVuSans-116"/>
      <use x="882.59375" xlink:href="#DejaVuSans-101"/>
     </g>
    </g>
   </g>
   <g id="matplotlib.axis_2">
    <g id="ytick_1">
     <g id="line2d_7">
      <defs>
       <path d="M 0 0 
L -3.5 0 
" id="mf04fbda172" style="stroke:#000000;stroke-width:0.8;"/>
      </defs>
      <g>
       <use style="stroke:#000000;stroke-width:0.8;" x="57.6" xlink:href="#mf04fbda172" y="307.584"/>
      </g>
     </g>
     <g id="text_8">
      <!-- 0.0 -->
      <g transform="translate(34.696875 311.383219)scale(0.1 -0.1)">
       <use xlink:href="#DejaVuSans-48"/>
       <use x="63.623047" xlink:href="#DejaVuSans-46"/>
       <use x="95.410156" xlink:href="#DejaVuSans-48"/>
      </g>
     </g>
    </g>
    <g id="ytick_2">
     <g id="line2d_8">
      <g>
       <use style="stroke:#000000;stroke-width:0.8;" x="57.6" xlink:href="#mf04fbda172" y="256.896"/>
      </g>
     </g>
     <g id="text_9">
      <!-- 0.2 -->
      <g transform="translate(34.696875 260.695219)scale(0.1 -0.1)">
       <use xlink:href="#DejaVuSans-48"/>
       <use x="63.623047" xlink:href="#DejaVuSans-46"/>
       <use x="95.410156" xlink:href="#DejaVuSans-50"/>
      </g>
     </g>
    </g>
    <g id="ytick_3">
     <g id="line2d_9">
      <g>
       <use style="stroke:#000000;stroke-width:0.8;" x="57.6" xlink:href="#mf04fbda172" y="206.208"/>
      </g>
     </g>
     <g id="text_10">
      <!-- 0.4 -->
      <g transform="translate(34.696875 210.007219)scale(0.1 -0.1)">
       <use xlink:href="#DejaVuSans-48"/>
       <use x="63.623047" xlink:href="#DejaVuSans-46"/>
       <use x="95.410156" xlink:href="#DejaVuSans-52"/>
      </g>
     </g>
    </g>
    <g id="ytick_4">
     <g id="line2d_10">
      <g>
       <use style="stroke:#000000;stroke-width:0.8;" x="57.6" xlink:href="#mf04fbda172" y="155.52"/>
      </g>
     </g>
     <g id="text_11">
      <!-- 0.6 -->
      <g transform="translate(34.696875 159.319219)scale(0.1 -0.1)">
       <use xlink:href="#DejaVuSans-48"/>
       <use x="63.623047" xlink:href="#DejaVuSans-46"/>
       <use x="95.410156" xlink:href="#DejaVuSans-54"/>
      </g>
     </g>
    </g>
    <g id="ytick_5">
     <g id="line2d_11">
      <g>
       <use style="stroke:#000000;stroke-width:0.8;" x="57.6" xlink:href="#mf04fbda172" y="104.832"/>
      </g>
     </g>
     <g id="text_12">
      <!-- 0.8 -->
      <g transform="translate(34.696875 108.631219)scale(0.1 -0.1)">
       <use xlink:href="#DejaVuSans-48"/>
       <use x="63.623047" xlink:href="#DejaVuSans-46"/>
       <use x="95.410156" xlink:href="#DejaVuSans-56"/>
      </g>
     </g>
    </g>
    <g id="ytick_6">
     <g id="line2d_12">
      <g>
       <use style="stroke:#000000;stroke-width:0.8;" x="57.6" xlink:href="#mf04fbda172" y="54.144"/>
      </g>
     </g>
     <g id="text_13">
      <!-- 1.0 -->
      <g transform="translate(34.696875 57.943219)scale(0.1 -0.1)">
       <use xlink:href="#DejaVuSans-49"/>
       <use x="63.623047" xlink:href="#DejaVuSans-46"/>
       <use x="95.410156" xlink:href="#DejaVuSans-48"/>
      </g>
     </g>
    </g>
    <g id="text_14">
     <!-- True Positive Rate -->
     <defs>
      <path d="M -0.296875 72.90625 
L 61.375 72.90625 
L 61.375 64.59375 
L 35.5 64.59375 
L 35.5 0 
L 25.59375 0 
L 25.59375 64.59375 
L -0.296875 64.59375 
z
" id="DejaVuSans-84"/>
      <path d="M 41.109375 46.296875 
Q 39.59375 47.171875 37.8125 47.578125 
Q 36.03125 48 33.890625 48 
Q 26.265625 48 22.1875 43.046875 
Q 18.109375 38.09375 18.109375 28.8125 
L 18.109375 0 
L 9.078125 0 
L 9.078125 54.6875 
L 18.109375 54.6875 
L 18.109375 46.1875 
Q 20.953125 51.171875 25.484375 53.578125 
Q 30.03125 56 36.53125 56 
Q 37.453125 56 38.578125 55.875 
Q 39.703125 55.765625 41.0625 55.515625 
z
" id="DejaVuSans-114"/>
      <path d="M 8.5 21.578125 
L 8.5 54.6875 
L 17.484375 54.6875 
L 17.484375 21.921875 
Q 17.484375 14.15625 20.5 10.265625 
Q 23.53125 6.390625 29.59375 6.390625 
Q 36.859375 6.390625 41.078125 11.03125 
Q 45.3125 15.671875 45.3125 23.6875 
L 45.3125 54.6875 
L 54.296875 54.6875 
L 54.296875 0 
L 45.3125 0 
L 45.3125 8.40625 
Q 42.046875 3.421875 37.71875 1 
Q 33.40625 -1.421875 27.6875 -1.421875 
Q 18.265625 -1.421875 13.375 4.4375 
Q 8.5 10.296875 8.5 21.578125 
z
M 31.109375 56 
z
" id="DejaVuSans-117"/>
     </defs>
     <g transform="translate(28.617187 220.074094)rotate(-90)scale(0.1 -0.1)">
      <use xlink:href="#DejaVuSans-84"/>
      <use x="60.865234" xlink:href="#DejaVuSans-114"/>
      <use x="101.978516" xlink:href="#DejaVuSans-117"/>
      <use x="165.357422" xlink:href="#DejaVuSans-101"/>
      <use x="226.880859" xlink:href="#DejaVuSans-32"/>
      <use x="258.667969" xlink:href="#DejaVuSans-80"/>
      <use x="318.923828" xlink:href="#DejaVuSans-111"/>
      <use x="380.105469" xlink:href="#DejaVuSans-115"/>
      <use x="432.205078" xlink:href="#DejaVuSans-105"/>
      <use x="459.988281" xlink:href="#DejaVuSans-116"/>
      <use x="499.197266" xlink:href="#DejaVuSans-105"/>
      <use x="526.980469" xlink:href="#DejaVuSans-118"/>
      <use x="586.160156" xlink:href="#DejaVuSans-101"/>
      <use x="647.683594" xlink:href="#DejaVuSans-32"/>
      <use x="679.470703" xlink:href="#DejaVuSans-82"/>
      <use x="748.921875" xlink:href="#DejaVuSans-97"/>
      <use x="810.201172" xlink:href="#DejaVuSans-116"/>
      <use x="849.410156" xlink:href="#DejaVuSans-101"/>
     </g>
    </g>
   </g>
   <g id="line2d_13">
    <path clip-path="url(#p6080a992e4)" d="M 57.6 307.584 
L 57.692487 161.582046 
L 58.857823 143.922781 
L 60.115646 132.453775 
L 60.929532 127.625774 
L 61.137627 126.824446 
L 61.780412 123.008121 
L 62.779271 118.220187 
L 63.537665 115.475639 
L 64.721498 112.039945 
L 66.122676 108.604251 
L 66.950434 106.951512 
L 67.986289 105.348857 
L 69.151625 103.936516 
L 69.6788 103.075088 
L 71.010613 101.592632 
L 75.505481 97.525892 
L 78.002629 95.793021 
L 79.366812 94.871493 
L 80.957588 94.180348 
L 86.469813 91.165352 
L 88.721871 90.223791 
L 100.80992 86.437517 
L 114.128046 83.182122 
L 120.255309 82.050246 
L 127.131716 80.898337 
L 134.859004 79.435914 
L 144.098454 77.983507 
L 168.256055 74.46768 
L 184.681743 72.334145 
L 229.889382 68.177256 
L 262.319944 65.582957 
L 304.665111 61.6264 
L 414.72 54.144 
L 414.72 54.144 
" style="fill:none;stroke:#1f77b4;stroke-linecap:square;stroke-width:2;"/>
   </g>
   <g id="line2d_14">
    <path clip-path="url(#p6080a992e4)" d="M 57.6 307.584 
L 57.604091 307.550723 
L 57.604091 307.450891 
L 57.612273 307.267866 
L 57.616364 307.051563 
L 57.624545 306.71879 
L 57.657273 306.186353 
L 57.69 305.504168 
L 57.739091 304.821983 
L 57.816818 303.790387 
L 57.898636 302.675597 
L 57.980455 301.27795 
L 58.05 299.996773 
L 58.135909 298.54921 
L 58.262727 296.835429 
L 58.418182 295.121647 
L 58.598182 293.607529 
L 58.798636 291.461143 
L 59.007273 289.464504 
L 59.224091 287.251563 
L 59.49 285.071899 
L 59.764091 282.675933 
L 60.050455 280.446353 
L 60.320455 278.166857 
L 60.627273 275.704336 
L 60.966818 272.692739 
L 61.318636 269.914084 
L 61.727727 267.052235 
L 62.161364 264.306857 
L 62.570455 261.328538 
L 62.979545 258.69963 
L 63.392727 255.588202 
L 63.920455 252.659798 
L 64.452273 249.465176 
L 65.082273 246.553412 
L 65.634545 243.72484 
L 66.235909 240.596773 
L 66.849545 237.435429 
L 67.630909 234.706689 
L 68.326364 231.695092 
L 69.001364 228.700134 
L 69.778636 225.472235 
L 70.510909 221.994756 
L 71.349545 218.300975 
L 72.196364 214.956605 
L 73.055455 212.244504 
L 74.090455 209.116437 
L 75.174545 205.356101 
L 76.164545 201.612403 
L 77.113636 198.284672 
L 78.246818 195.123328 
L 79.339091 191.762319 
L 80.500909 188.318118 
L 81.691364 184.990387 
L 82.951364 181.762487 
L 84.358636 177.918958 
L 85.892727 174.940639 
L 87.230455 171.978958 
L 88.748182 168.218622 
L 90.212727 164.907529 
L 91.763182 162.145513 
L 93.526364 158.917613 
L 95.289545 155.822824 
L 97.077273 152.328706 
L 98.885455 149.150723 
L 100.665 146.305513 
L 102.739091 143.177445 
L 104.768182 140.282319 
L 106.825909 137.037782 
L 108.883636 134.142655 
L 111.280909 131.064504 
L 113.49 128.335765 
L 115.977273 125.424 
L 118.485 122.595429 
L 121.197273 119.700303 
L 123.893182 116.655429 
L 126.503182 113.893412 
L 129.346364 111.098118 
L 132.447273 108.252908 
L 135.527727 105.341143 
L 138.465 102.828706 
L 141.668182 100.382824 
L 144.834545 97.637445 
L 148.373182 94.892067 
L 152.079545 92.529378 
L 155.974091 89.950387 
L 159.819545 87.504504 
L 163.975909 84.942151 
L 168.545455 82.462992 
L 173.196818 80.033748 
L 178.163182 77.920639 
L 183.767727 75.474756 
L 189.695455 73.295092 
L 196.351364 71.298454 
L 203.494091 69.152067 
L 211.205455 66.872571 
L 220.712727 65.025681 
L 231.381818 62.92921 
L 245.245909 60.599798 
L 264.681818 58.47005 
L 293.502273 55.974252 
L 414.72 54.144 
" style="fill:none;stroke:#ff7f0e;stroke-linecap:square;stroke-width:2;"/>
   </g>
   <g id="line2d_15">
    <path clip-path="url(#p6080a992e4)" d="M 57.6 307.584 
L 57.612207 307.480997 
L 57.620345 307.189153 
L 57.64476 306.948812 
L 57.661036 306.330791 
L 57.677312 305.747105 
L 57.722071 305.163419 
L 57.758693 304.425227 
L 57.807521 303.566865 
L 57.860419 302.536831 
L 57.921455 301.506796 
L 58.02725 300.459594 
L 58.104562 299.275055 
L 58.177805 297.918843 
L 58.255117 296.648467 
L 58.348705 295.172084 
L 58.523674 293.592697 
L 58.662022 292.287987 
L 58.7963 290.708601 
L 58.918372 289.060545 
L 59.060788 287.429657 
L 59.199136 285.747268 
L 59.398519 284.167881 
L 59.606041 282.227983 
L 59.854253 280.270917 
L 60.143155 278.382521 
L 60.452403 276.116445 
L 60.72096 274.210881 
L 61.034277 272.28815 
L 61.31911 270.004906 
L 61.624288 267.223813 
L 61.994572 264.734563 
L 62.360786 262.519989 
L 62.763622 260.305414 
L 63.097284 257.798997 
L 63.496051 255.275412 
L 63.96806 252.150974 
L 64.399379 249.43855 
L 64.851044 246.674624 
L 65.298639 244.099537 
L 65.778787 241.524451 
L 66.307763 238.503016 
L 66.87336 235.859261 
L 67.512201 232.75199 
L 68.065592 230.022399 
L 68.663742 226.863626 
L 69.237477 223.756355 
L 69.86818 220.855091 
L 70.563987 217.558981 
L 71.219104 214.400208 
L 71.853875 210.96676 
L 72.679892 207.79082 
L 73.412321 204.408873 
L 74.14068 201.12993 
L 74.99518 198.211498 
L 75.861888 195.104228 
L 76.801838 192.082793 
L 77.790616 188.512007 
L 78.62884 185.576408 
L 79.601343 182.469137 
L 80.655226 179.258863 
L 81.639936 176.203094 
L 82.836236 173.490669 
L 83.853498 170.778245 
L 85.045729 167.979985 
L 86.36817 165.353396 
L 87.617367 162.383464 
L 88.923532 159.911381 
L 90.420941 157.713974 
L 91.898006 154.898546 
L 93.28962 151.980115 
L 94.721925 149.405028 
L 96.353613 146.177587 
L 97.944611 143.533831 
L 99.82858 141.11325 
L 101.651514 138.452328 
L 103.714521 135.310722 
L 105.871117 132.838639 
L 108.092817 130.383724 
L 110.47321 127.842972 
L 112.987882 125.182049 
L 115.575796 122.658465 
L 118.342749 120.066211 
L 121.37419 117.64563 
L 124.291697 114.761533 
L 127.595764 111.808767 
L 131.16025 108.976172 
L 135.196746 105.920403 
L 139.363451 102.916136 
L 143.957406 99.705861 
L 149.381447 96.529922 
L 154.890938 93.165142 
L 161.275275 90.006369 
L 168.278106 86.761761 
L 176.391788 82.847629 
L 185.461696 79.500017 
L 195.931357 75.774725 
L 208.86686 72.015099 
L 224.736148 67.671787 
L 246.383483 63.036632 
L 279.322427 58.555981 
L 414.72 54.144 
" style="fill:none;stroke:#2ca02c;stroke-linecap:square;stroke-width:2;"/>
   </g>
   <g id="line2d_16">
    <path clip-path="url(#p6080a992e4)" d="M 57.6 307.584 
L 57.692636 302.920338 
L 57.814747 296.325404 
L 57.924226 291.175348 
L 58.092655 285.953763 
L 58.189501 282.033998 
L 58.303191 277.942564 
L 58.391616 274.05141 
L 58.463199 270.675262 
L 58.517938 267.656757 
L 58.623206 264.838531 
L 58.724264 262.30642 
L 58.816899 259.602641 
L 58.943221 257.57123 
L 59.086386 255.310927 
L 59.212708 252.850345 
L 59.309554 250.990602 
L 59.477983 248.973497 
L 59.625359 247.156671 
L 59.75168 245.039426 
L 59.835895 243.079543 
L 59.974849 240.976603 
L 60.084328 239.302835 
L 60.261178 237.514621 
L 60.416975 235.554738 
L 60.522243 233.666384 
L 60.67804 231.964005 
L 60.804362 230.032733 
L 60.989634 228.029934 
L 61.162273 226.198802 
L 61.360177 224.281837 
L 61.604399 222.565152 
L 61.819146 220.83416 
L 62.000208 218.974418 
L 62.231797 217.386484 
L 62.433912 215.483824 
L 62.610763 214.010336 
L 62.926567 211.907396 
L 63.191843 210.176405 
L 63.457118 208.330968 
L 63.75608 206.228028 
L 64.042409 204.296757 
L 64.383478 202.25104 
L 64.720336 200.205323 
L 64.960347 198.016549 
L 65.314048 195.770552 
L 65.61722 193.882198 
L 65.991975 191.865093 
L 66.408836 189.90521 
L 66.863595 187.730742 
L 67.385725 185.441828 
L 67.756268 183.181525 
L 68.198395 181.135809 
L 68.611046 179.032869 
L 69.124754 177.044375 
L 69.785838 175.127409 
L 70.299546 172.838495 
L 70.884837 170.42083 
L 71.529078 168.303585 
L 72.202794 165.943142 
L 72.914406 163.797285 
L 73.617598 161.422537 
L 74.278681 159.233763 
L 74.960819 157.17374 
L 75.832439 155.027883 
L 76.661952 152.939249 
L 77.541993 150.850615 
L 78.417824 148.761981 
L 79.386291 146.301399 
L 80.36739 143.969568 
L 81.537971 141.451762 
L 82.565388 139.320211 
L 83.820184 137.18866 
L 85.011819 134.842523 
L 86.283458 132.539304 
L 87.782476 130.321918 
L 89.306758 128.14745 
L 90.738405 126.201873 
L 92.582702 123.712679 
L 94.431211 121.266402 
L 96.368144 119.020406 
L 98.452453 116.788714 
L 100.780984 114.542718 
L 103.446373 112.039218 
L 106.052811 109.621552 
L 108.937158 107.118053 
L 112.082569 104.55733 
L 115.522732 101.853551 
L 119.438706 99.278522 
L 123.864178 96.51752 
L 128.508607 93.427486 
L 134.024657 90.423287 
L 140.125997 87.404781 
L 147.280019 84.600862 
L 155.82358 80.838459 
L 166.017745 77.061751 
L 178.089893 73.099069 
L 192.275825 69.694309 
L 210.432471 65.48843 
L 235.149426 61.168105 
L 272.460659 57.191117 
L 414.72 54.144 
" style="fill:none;stroke:#d62728;stroke-linecap:square;stroke-width:2;"/>
   </g>
   <g id="line2d_17">
    <path clip-path="url(#p6080a992e4)" d="M 57.6 307.584 
L 58.435623 300.718936 
L 59.217827 293.541824 
L 61.434707 275.982012 
L 62.522162 268.237539 
L 62.911356 266.734034 
L 63.651588 262.592301 
L 64.08657 260.748379 
L 65.498352 252.493281 
L 65.9982 249.798318 
L 67.326039 243.755927 
L 71.82085 223.557889 
L 74.720728 213.203557 
L 75.781473 208.69304 
L 77.880069 201.118775 
L 79.097255 196.86357 
L 81.863586 188.126216 
L 83.279185 183.161811 
L 84.824514 179.388862 
L 86.484313 174.935081 
L 88.147927 171.247237 
L 89.910748 167.048768 
L 91.833825 162.99214 
L 93.943868 158.907143 
L 96.057727 155.502979 
L 98.442495 150.964094 
L 101.159223 146.340105 
L 103.906476 142.170004 
L 106.943717 137.319071 
L 110.240421 133.00713 
L 113.781324 128.865397 
L 117.406172 124.042831 
L 121.591917 120.213147 
L 126.090544 116.184887 
L 136.633128 107.589373 
L 136.663653 107.561005 
L 143.13496 103.674584 
L 149.991646 99.334275 
L 157.489357 95.532959 
L 165.872294 91.618171 
L 175.640305 87.703382 
L 187.247449 83.504913 
L 201.044764 78.79582 
L 217.516836 74.937768 
L 238.540953 70.625827 
L 266.265314 65.859997 
L 305.970752 61.009064 
L 414.72 54.144 
L 414.72 54.144 
" style="fill:none;stroke:#9467bd;stroke-linecap:square;stroke-width:2;"/>
   </g>
   <g id="line2d_18">
    <path clip-path="url(#p6080a992e4)" d="M 57.6 307.584 
L 57.703877 299.85865 
L 57.926469 293.95341 
L 58.308586 287.198785 
L 58.701833 283.39678 
L 59.488326 278.947626 
L 61.001955 269.523508 
L 61.376653 267.501166 
L 64.849096 255.973812 
L 65.63559 254.153703 
L 66.422083 251.605551 
L 67.371811 248.086675 
L 68.421706 244.648692 
L 70.866513 239.592835 
L 72.246587 236.073959 
L 73.704568 233.161785 
L 77.036036 225.476882 
L 81.332071 216.538127 
L 83.650743 212.210313 
L 86.473958 207.639819 
L 89.363951 202.179493 
L 92.435727 197.366317 
L 95.878492 191.54197 
L 99.881447 185.677176 
L 104.144093 180.580872 
L 109.018869 175.403674 
L 114.33883 166.990728 
L 120.541741 159.346273 
L 127.72777 150.89288 
L 136.060149 143.207977 
L 145.575979 133.419838 
L 156.735283 125.41136 
L 170.057445 114.692944 
L 186.340087 104.904804 
L 205.471913 93.620132 
L 229.393188 82.618587 
L 261.353762 73.194469 
L 305.048671 62.961415 
L 414.72 54.144 
L 414.72 54.144 
" style="fill:none;stroke:#8c564b;stroke-linecap:square;stroke-width:2;"/>
   </g>
   <g id="line2d_19">
    <path clip-path="url(#p6080a992e4)" d="M 57.6 307.584 
L 57.693113 306.504025 
L 58.021032 303.264101 
L 59.385337 291.82699 
L 59.996643 288.374611 
L 60.887287 282.036398 
L 62.126092 275.751299 
L 62.919575 270.811742 
L 65.712959 257.037636 
L 67.129893 251.035809 
L 67.765489 247.848998 
L 69.392939 242.519941 
L 70.105455 239.244608 
L 75.113304 223.664643 
L 77.117254 217.857565 
L 78.266995 214.210437 
L 80.635299 207.712883 
L 83.197925 200.967466 
L 86.412341 194.487617 
L 89.42029 187.972359 
L 91.031546 184.272117 
L 96.290395 173.578596 
L 98.257909 170.01999 
L 100.148504 166.160408 
L 104.285952 159.09631 
L 106.61782 155.537705 
L 108.779657 151.660418 
L 111.309896 148.420493 
L 118.993727 138.15188 
L 121.746627 134.788024 
L 124.329495 131.264827 
L 130.636876 124.90891 
L 137.357191 117.260563 
L 141.186962 113.967525 
L 145.081506 110.780714 
L 158.344008 101.078645 
L 169.076271 94.864363 
L 181.488613 88.36681 
L 188.68259 85.410157 
L 197.0425 82.347278 
L 206.394265 78.770968 
L 217.041512 75.796611 
L 244.266887 69.422988 
L 263.440028 66.183064 
L 287.094729 62.057914 
L 317.955552 57.968173 
L 414.72 54.144 
L 414.72 54.144 
" style="fill:none;stroke:#e377c2;stroke-linecap:square;stroke-width:2;"/>
   </g>
   <g id="line2d_20">
    <path clip-path="url(#p6080a992e4)" d="M 57.6 307.584 
L 414.72 54.144 
" style="fill:none;stroke:#000080;stroke-dasharray:7.4,3.2;stroke-dashoffset:0;stroke-width:2;"/>
   </g>
   <g id="patch_3">
    <path d="M 57.6 307.584 
L 57.6 41.472 
" style="fill:none;stroke:#000000;stroke-linecap:square;stroke-linejoin:miter;stroke-width:0.8;"/>
   </g>
   <g id="patch_4">
    <path d="M 414.72 307.584 
L 414.72 41.472 
" style="fill:none;stroke:#000000;stroke-linecap:square;stroke-linejoin:miter;stroke-width:0.8;"/>
   </g>
   <g id="patch_5">
    <path d="M 57.6 307.584 
L 414.72 307.584 
" style="fill:none;stroke:#000000;stroke-linecap:square;stroke-linejoin:miter;stroke-width:0.8;"/>
   </g>
   <g id="patch_6">
    <path d="M 57.6 41.472 
L 414.72 41.472 
" style="fill:none;stroke:#000000;stroke-linecap:square;stroke-linejoin:miter;stroke-width:0.8;"/>
   </g>
   <g id="text_15">
    <!-- ROC random_forest -->
    <defs>
     <path d="M 39.40625 66.21875 
Q 28.65625 66.21875 22.328125 58.203125 
Q 16.015625 50.203125 16.015625 36.375 
Q 16.015625 22.609375 22.328125 14.59375 
Q 28.65625 6.59375 39.40625 6.59375 
Q 50.140625 6.59375 56.421875 14.59375 
Q 62.703125 22.609375 62.703125 36.375 
Q 62.703125 50.203125 56.421875 58.203125 
Q 50.140625 66.21875 39.40625 66.21875 
z
M 39.40625 74.21875 
Q 54.734375 74.21875 63.90625 63.9375 
Q 73.09375 53.65625 73.09375 36.375 
Q 73.09375 19.140625 63.90625 8.859375 
Q 54.734375 -1.421875 39.40625 -1.421875 
Q 24.03125 -1.421875 14.8125 8.828125 
Q 5.609375 19.09375 5.609375 36.375 
Q 5.609375 53.65625 14.8125 63.9375 
Q 24.03125 74.21875 39.40625 74.21875 
z
" id="DejaVuSans-79"/>
     <path d="M 64.40625 67.28125 
L 64.40625 56.890625 
Q 59.421875 61.53125 53.78125 63.8125 
Q 48.140625 66.109375 41.796875 66.109375 
Q 29.296875 66.109375 22.65625 58.46875 
Q 16.015625 50.828125 16.015625 36.375 
Q 16.015625 21.96875 22.65625 14.328125 
Q 29.296875 6.6875 41.796875 6.6875 
Q 48.140625 6.6875 53.78125 8.984375 
Q 59.421875 11.28125 64.40625 15.921875 
L 64.40625 5.609375 
Q 59.234375 2.09375 53.4375 0.328125 
Q 47.65625 -1.421875 41.21875 -1.421875 
Q 24.65625 -1.421875 15.125 8.703125 
Q 5.609375 18.84375 5.609375 36.375 
Q 5.609375 53.953125 15.125 64.078125 
Q 24.65625 74.21875 41.21875 74.21875 
Q 47.75 74.21875 53.53125 72.484375 
Q 59.328125 70.75 64.40625 67.28125 
z
" id="DejaVuSans-67"/>
     <path d="M 54.890625 33.015625 
L 54.890625 0 
L 45.90625 0 
L 45.90625 32.71875 
Q 45.90625 40.484375 42.875 44.328125 
Q 39.84375 48.1875 33.796875 48.1875 
Q 26.515625 48.1875 22.3125 43.546875 
Q 18.109375 38.921875 18.109375 30.90625 
L 18.109375 0 
L 9.078125 0 
L 9.078125 54.6875 
L 18.109375 54.6875 
L 18.109375 46.1875 
Q 21.34375 51.125 25.703125 53.5625 
Q 30.078125 56 35.796875 56 
Q 45.21875 56 50.046875 50.171875 
Q 54.890625 44.34375 54.890625 33.015625 
z
" id="DejaVuSans-110"/>
     <path d="M 45.40625 46.390625 
L 45.40625 75.984375 
L 54.390625 75.984375 
L 54.390625 0 
L 45.40625 0 
L 45.40625 8.203125 
Q 42.578125 3.328125 38.25 0.953125 
Q 33.9375 -1.421875 27.875 -1.421875 
Q 17.96875 -1.421875 11.734375 6.484375 
Q 5.515625 14.40625 5.515625 27.296875 
Q 5.515625 40.1875 11.734375 48.09375 
Q 17.96875 56 27.875 56 
Q 33.9375 56 38.25 53.625 
Q 42.578125 51.265625 45.40625 46.390625 
z
M 14.796875 27.296875 
Q 14.796875 17.390625 18.875 11.75 
Q 22.953125 6.109375 30.078125 6.109375 
Q 37.203125 6.109375 41.296875 11.75 
Q 45.40625 17.390625 45.40625 27.296875 
Q 45.40625 37.203125 41.296875 42.84375 
Q 37.203125 48.484375 30.078125 48.484375 
Q 22.953125 48.484375 18.875 42.84375 
Q 14.796875 37.203125 14.796875 27.296875 
z
" id="DejaVuSans-100"/>
     <path d="M 52 44.1875 
Q 55.375 50.25 60.0625 53.125 
Q 64.75 56 71.09375 56 
Q 79.640625 56 84.28125 50.015625 
Q 88.921875 44.046875 88.921875 33.015625 
L 88.921875 0 
L 79.890625 0 
L 79.890625 32.71875 
Q 79.890625 40.578125 77.09375 44.375 
Q 74.3125 48.1875 68.609375 48.1875 
Q 61.625 48.1875 57.5625 43.546875 
Q 53.515625 38.921875 53.515625 30.90625 
L 53.515625 0 
L 44.484375 0 
L 44.484375 32.71875 
Q 44.484375 40.625 41.703125 44.40625 
Q 38.921875 48.1875 33.109375 48.1875 
Q 26.21875 48.1875 22.15625 43.53125 
Q 18.109375 38.875 18.109375 30.90625 
L 18.109375 0 
L 9.078125 0 
L 9.078125 54.6875 
L 18.109375 54.6875 
L 18.109375 46.1875 
Q 21.1875 51.21875 25.484375 53.609375 
Q 29.78125 56 35.6875 56 
Q 41.65625 56 45.828125 52.96875 
Q 50 49.953125 52 44.1875 
z
" id="DejaVuSans-109"/>
     <path d="M 50.984375 -16.609375 
L 50.984375 -23.578125 
L -0.984375 -23.578125 
L -0.984375 -16.609375 
z
" id="DejaVuSans-95"/>
     <path d="M 37.109375 75.984375 
L 37.109375 68.5 
L 28.515625 68.5 
Q 23.6875 68.5 21.796875 66.546875 
Q 19.921875 64.59375 19.921875 59.515625 
L 19.921875 54.6875 
L 34.71875 54.6875 
L 34.71875 47.703125 
L 19.921875 47.703125 
L 19.921875 0 
L 10.890625 0 
L 10.890625 47.703125 
L 2.296875 47.703125 
L 2.296875 54.6875 
L 10.890625 54.6875 
L 10.890625 58.5 
Q 10.890625 67.625 15.140625 71.796875 
Q 19.390625 75.984375 28.609375 75.984375 
z
" id="DejaVuSans-102"/>
    </defs>
    <g transform="translate(177.482812 35.472)scale(0.12 -0.12)">
     <use xlink:href="#DejaVuSans-82"/>
     <use x="69.482422" xlink:href="#DejaVuSans-79"/>
     <use x="148.193359" xlink:href="#DejaVuSans-67"/>
     <use x="218.017578" xlink:href="#DejaVuSans-32"/>
     <use x="249.804688" xlink:href="#DejaVuSans-114"/>
     <use x="290.917969" xlink:href="#DejaVuSans-97"/>
     <use x="352.197266" xlink:href="#DejaVuSans-110"/>
     <use x="415.576172" xlink:href="#DejaVuSans-100"/>
     <use x="479.052734" xlink:href="#DejaVuSans-111"/>
     <use x="540.234375" xlink:href="#DejaVuSans-109"/>
     <use x="637.646484" xlink:href="#DejaVuSans-95"/>
     <use x="687.646484" xlink:href="#DejaVuSans-102"/>
     <use x="722.851562" xlink:href="#DejaVuSans-111"/>
     <use x="784.033203" xlink:href="#DejaVuSans-114"/>
     <use x="825.115234" xlink:href="#DejaVuSans-101"/>
     <use x="886.638672" xlink:href="#DejaVuSans-115"/>
     <use x="938.738281" xlink:href="#DejaVuSans-116"/>
    </g>
   </g>
   <g id="legend_1">
    <g id="patch_7">
     <path d="M 237.502813 302.584 
L 407.72 302.584 
Q 409.72 302.584 409.72 300.584 
L 409.72 198.837125 
Q 409.72 196.837125 407.72 196.837125 
L 237.502813 196.837125 
Q 235.502813 196.837125 235.502813 198.837125 
L 235.502813 300.584 
Q 235.502813 302.584 237.502813 302.584 
z
" style="fill:#ffffff;opacity:0.8;stroke:#cccccc;stroke-linejoin:miter;"/>
    </g>
    <g id="line2d_21">
     <path d="M 239.502813 204.935563 
L 259.502813 204.935563 
" style="fill:none;stroke:#1f77b4;stroke-linecap:square;stroke-width:2;"/>
    </g>
    <g id="line2d_22"/>
    <g id="text_16">
     <!-- blank (area = 0.93) -->
     <defs>
      <path d="M 48.6875 27.296875 
Q 48.6875 37.203125 44.609375 42.84375 
Q 40.53125 48.484375 33.40625 48.484375 
Q 26.265625 48.484375 22.1875 42.84375 
Q 18.109375 37.203125 18.109375 27.296875 
Q 18.109375 17.390625 22.1875 11.75 
Q 26.265625 6.109375 33.40625 6.109375 
Q 40.53125 6.109375 44.609375 11.75 
Q 48.6875 17.390625 48.6875 27.296875 
z
M 18.109375 46.390625 
Q 20.953125 51.265625 25.265625 53.625 
Q 29.59375 56 35.59375 56 
Q 45.5625 56 51.78125 48.09375 
Q 58.015625 40.1875 58.015625 27.296875 
Q 58.015625 14.40625 51.78125 6.484375 
Q 45.5625 -1.421875 35.59375 -1.421875 
Q 29.59375 -1.421875 25.265625 0.953125 
Q 20.953125 3.328125 18.109375 8.203125 
L 18.109375 0 
L 9.078125 0 
L 9.078125 75.984375 
L 18.109375 75.984375 
z
" id="DejaVuSans-98"/>
      <path d="M 9.078125 75.984375 
L 18.109375 75.984375 
L 18.109375 31.109375 
L 44.921875 54.6875 
L 56.390625 54.6875 
L 27.390625 29.109375 
L 57.625 0 
L 45.90625 0 
L 18.109375 26.703125 
L 18.109375 0 
L 9.078125 0 
z
" id="DejaVuSans-107"/>
      <path d="M 31 75.875 
Q 24.46875 64.65625 21.28125 53.65625 
Q 18.109375 42.671875 18.109375 31.390625 
Q 18.109375 20.125 21.3125 9.0625 
Q 24.515625 -2 31 -13.1875 
L 23.1875 -13.1875 
Q 15.875 -1.703125 12.234375 9.375 
Q 8.59375 20.453125 8.59375 31.390625 
Q 8.59375 42.28125 12.203125 53.3125 
Q 15.828125 64.359375 23.1875 75.875 
z
" id="DejaVuSans-40"/>
      <path d="M 10.59375 45.40625 
L 73.1875 45.40625 
L 73.1875 37.203125 
L 10.59375 37.203125 
z
M 10.59375 25.484375 
L 73.1875 25.484375 
L 73.1875 17.1875 
L 10.59375 17.1875 
z
" id="DejaVuSans-61"/>
      <path d="M 10.984375 1.515625 
L 10.984375 10.5 
Q 14.703125 8.734375 18.5 7.8125 
Q 22.3125 6.890625 25.984375 6.890625 
Q 35.75 6.890625 40.890625 13.453125 
Q 46.046875 20.015625 46.78125 33.40625 
Q 43.953125 29.203125 39.59375 26.953125 
Q 35.25 24.703125 29.984375 24.703125 
Q 19.046875 24.703125 12.671875 31.3125 
Q 6.296875 37.9375 6.296875 49.421875 
Q 6.296875 60.640625 12.9375 67.421875 
Q 19.578125 74.21875 30.609375 74.21875 
Q 43.265625 74.21875 49.921875 64.515625 
Q 56.59375 54.828125 56.59375 36.375 
Q 56.59375 19.140625 48.40625 8.859375 
Q 40.234375 -1.421875 26.421875 -1.421875 
Q 22.703125 -1.421875 18.890625 -0.6875 
Q 15.09375 0.046875 10.984375 1.515625 
z
M 30.609375 32.421875 
Q 37.25 32.421875 41.125 36.953125 
Q 45.015625 41.5 45.015625 49.421875 
Q 45.015625 57.28125 41.125 61.84375 
Q 37.25 66.40625 30.609375 66.40625 
Q 23.96875 66.40625 20.09375 61.84375 
Q 16.21875 57.28125 16.21875 49.421875 
Q 16.21875 41.5 20.09375 36.953125 
Q 23.96875 32.421875 30.609375 32.421875 
z
" id="DejaVuSans-57"/>
      <path d="M 40.578125 39.3125 
Q 47.65625 37.796875 51.625 33 
Q 55.609375 28.21875 55.609375 21.1875 
Q 55.609375 10.40625 48.1875 4.484375 
Q 40.765625 -1.421875 27.09375 -1.421875 
Q 22.515625 -1.421875 17.65625 -0.515625 
Q 12.796875 0.390625 7.625 2.203125 
L 7.625 11.71875 
Q 11.71875 9.328125 16.59375 8.109375 
Q 21.484375 6.890625 26.8125 6.890625 
Q 36.078125 6.890625 40.9375 10.546875 
Q 45.796875 14.203125 45.796875 21.1875 
Q 45.796875 27.640625 41.28125 31.265625 
Q 36.765625 34.90625 28.71875 34.90625 
L 20.21875 34.90625 
L 20.21875 43.015625 
L 29.109375 43.015625 
Q 36.375 43.015625 40.234375 45.921875 
Q 44.09375 48.828125 44.09375 54.296875 
Q 44.09375 59.90625 40.109375 62.90625 
Q 36.140625 65.921875 28.71875 65.921875 
Q 24.65625 65.921875 20.015625 65.03125 
Q 15.375 64.15625 9.8125 62.3125 
L 9.8125 71.09375 
Q 15.4375 72.65625 20.34375 73.4375 
Q 25.25 74.21875 29.59375 74.21875 
Q 40.828125 74.21875 47.359375 69.109375 
Q 53.90625 64.015625 53.90625 55.328125 
Q 53.90625 49.265625 50.4375 45.09375 
Q 46.96875 40.921875 40.578125 39.3125 
z
" id="DejaVuSans-51"/>
      <path d="M 8.015625 75.875 
L 15.828125 75.875 
Q 23.140625 64.359375 26.78125 53.3125 
Q 30.421875 42.28125 30.421875 31.390625 
Q 30.421875 20.453125 26.78125 9.375 
Q 23.140625 -1.703125 15.828125 -13.1875 
L 8.015625 -13.1875 
Q 14.5 -2 17.703125 9.0625 
Q 20.90625 20.125 20.90625 31.390625 
Q 20.90625 42.671875 17.703125 53.65625 
Q 14.5 64.65625 8.015625 75.875 
z
" id="DejaVuSans-41"/>
     </defs>
     <g transform="translate(267.502813 208.435563)scale(0.1 -0.1)">
      <use xlink:href="#DejaVuSans-98"/>
      <use x="63.476562" xlink:href="#DejaVuSans-108"/>
      <use x="91.259766" xlink:href="#DejaVuSans-97"/>
      <use x="152.539062" xlink:href="#DejaVuSans-110"/>
      <use x="215.917969" xlink:href="#DejaVuSans-107"/>
      <use x="273.828125" xlink:href="#DejaVuSans-32"/>
      <use x="305.615234" xlink:href="#DejaVuSans-40"/>
      <use x="344.628906" xlink:href="#DejaVuSans-97"/>
      <use x="405.908203" xlink:href="#DejaVuSans-114"/>
      <use x="446.990234" xlink:href="#DejaVuSans-101"/>
      <use x="508.513672" xlink:href="#DejaVuSans-97"/>
      <use x="569.792969" xlink:href="#DejaVuSans-32"/>
      <use x="601.580078" xlink:href="#DejaVuSans-61"/>
      <use x="685.369141" xlink:href="#DejaVuSans-32"/>
      <use x="717.15625" xlink:href="#DejaVuSans-48"/>
      <use x="780.779297" xlink:href="#DejaVuSans-46"/>
      <use x="812.566406" xlink:href="#DejaVuSans-57"/>
      <use x="876.189453" xlink:href="#DejaVuSans-51"/>
      <use x="939.8125" xlink:href="#DejaVuSans-41"/>
     </g>
    </g>
    <g id="line2d_23">
     <path d="M 239.502813 219.613688 
L 259.502813 219.613688 
" style="fill:none;stroke:#ff7f0e;stroke-linecap:square;stroke-width:2;"/>
    </g>
    <g id="line2d_24"/>
    <g id="text_17">
     <!-- boxing (area = 0.87) -->
     <defs>
      <path d="M 54.890625 54.6875 
L 35.109375 28.078125 
L 55.90625 0 
L 45.3125 0 
L 29.390625 21.484375 
L 13.484375 0 
L 2.875 0 
L 24.125 28.609375 
L 4.6875 54.6875 
L 15.28125 54.6875 
L 29.78125 35.203125 
L 44.28125 54.6875 
z
" id="DejaVuSans-120"/>
      <path d="M 45.40625 27.984375 
Q 45.40625 37.75 41.375 43.109375 
Q 37.359375 48.484375 30.078125 48.484375 
Q 22.859375 48.484375 18.828125 43.109375 
Q 14.796875 37.75 14.796875 27.984375 
Q 14.796875 18.265625 18.828125 12.890625 
Q 22.859375 7.515625 30.078125 7.515625 
Q 37.359375 7.515625 41.375 12.890625 
Q 45.40625 18.265625 45.40625 27.984375 
z
M 54.390625 6.78125 
Q 54.390625 -7.171875 48.1875 -13.984375 
Q 42 -20.796875 29.203125 -20.796875 
Q 24.46875 -20.796875 20.265625 -20.09375 
Q 16.0625 -19.390625 12.109375 -17.921875 
L 12.109375 -9.1875 
Q 16.0625 -11.328125 19.921875 -12.34375 
Q 23.78125 -13.375 27.78125 -13.375 
Q 36.625 -13.375 41.015625 -8.765625 
Q 45.40625 -4.15625 45.40625 5.171875 
L 45.40625 9.625 
Q 42.625 4.78125 38.28125 2.390625 
Q 33.9375 0 27.875 0 
Q 17.828125 0 11.671875 7.65625 
Q 5.515625 15.328125 5.515625 27.984375 
Q 5.515625 40.671875 11.671875 48.328125 
Q 17.828125 56 27.875 56 
Q 33.9375 56 38.28125 53.609375 
Q 42.625 51.21875 45.40625 46.390625 
L 45.40625 54.6875 
L 54.390625 54.6875 
z
" id="DejaVuSans-103"/>
      <path d="M 8.203125 72.90625 
L 55.078125 72.90625 
L 55.078125 68.703125 
L 28.609375 0 
L 18.3125 0 
L 43.21875 64.59375 
L 8.203125 64.59375 
z
" id="DejaVuSans-55"/>
     </defs>
     <g transform="translate(267.502813 223.113688)scale(0.1 -0.1)">
      <use xlink:href="#DejaVuSans-98"/>
      <use x="63.476562" xlink:href="#DejaVuSans-111"/>
      <use x="124.611328" xlink:href="#DejaVuSans-120"/>
      <use x="183.791016" xlink:href="#DejaVuSans-105"/>
      <use x="211.574219" xlink:href="#DejaVuSans-110"/>
      <use x="274.953125" xlink:href="#DejaVuSans-103"/>
      <use x="338.429688" xlink:href="#DejaVuSans-32"/>
      <use x="370.216797" xlink:href="#DejaVuSans-40"/>
      <use x="409.230469" xlink:href="#DejaVuSans-97"/>
      <use x="470.509766" xlink:href="#DejaVuSans-114"/>
      <use x="511.591797" xlink:href="#DejaVuSans-101"/>
      <use x="573.115234" xlink:href="#DejaVuSans-97"/>
      <use x="634.394531" xlink:href="#DejaVuSans-32"/>
      <use x="666.181641" xlink:href="#DejaVuSans-61"/>
      <use x="749.970703" xlink:href="#DejaVuSans-32"/>
      <use x="781.757812" xlink:href="#DejaVuSans-48"/>
      <use x="845.380859" xlink:href="#DejaVuSans-46"/>
      <use x="877.167969" xlink:href="#DejaVuSans-56"/>
      <use x="940.791016" xlink:href="#DejaVuSans-55"/>
      <use x="1004.414062" xlink:href="#DejaVuSans-41"/>
     </g>
    </g>
    <g id="line2d_25">
     <path d="M 239.502813 234.291812 
L 259.502813 234.291812 
" style="fill:none;stroke:#2ca02c;stroke-linecap:square;stroke-width:2;"/>
    </g>
    <g id="line2d_26"/>
    <g id="text_18">
     <!-- handclapping (area = 0.87) -->
     <defs>
      <path d="M 54.890625 33.015625 
L 54.890625 0 
L 45.90625 0 
L 45.90625 32.71875 
Q 45.90625 40.484375 42.875 44.328125 
Q 39.84375 48.1875 33.796875 48.1875 
Q 26.515625 48.1875 22.3125 43.546875 
Q 18.109375 38.921875 18.109375 30.90625 
L 18.109375 0 
L 9.078125 0 
L 9.078125 75.984375 
L 18.109375 75.984375 
L 18.109375 46.1875 
Q 21.34375 51.125 25.703125 53.5625 
Q 30.078125 56 35.796875 56 
Q 45.21875 56 50.046875 50.171875 
Q 54.890625 44.34375 54.890625 33.015625 
z
" id="DejaVuSans-104"/>
      <path d="M 48.78125 52.59375 
L 48.78125 44.1875 
Q 44.96875 46.296875 41.140625 47.34375 
Q 37.3125 48.390625 33.40625 48.390625 
Q 24.65625 48.390625 19.8125 42.84375 
Q 14.984375 37.3125 14.984375 27.296875 
Q 14.984375 17.28125 19.8125 11.734375 
Q 24.65625 6.203125 33.40625 6.203125 
Q 37.3125 6.203125 41.140625 7.25 
Q 44.96875 8.296875 48.78125 10.40625 
L 48.78125 2.09375 
Q 45.015625 0.34375 40.984375 -0.53125 
Q 36.96875 -1.421875 32.421875 -1.421875 
Q 20.0625 -1.421875 12.78125 6.34375 
Q 5.515625 14.109375 5.515625 27.296875 
Q 5.515625 40.671875 12.859375 48.328125 
Q 20.21875 56 33.015625 56 
Q 37.15625 56 41.109375 55.140625 
Q 45.0625 54.296875 48.78125 52.59375 
z
" id="DejaVuSans-99"/>
      <path d="M 18.109375 8.203125 
L 18.109375 -20.796875 
L 9.078125 -20.796875 
L 9.078125 54.6875 
L 18.109375 54.6875 
L 18.109375 46.390625 
Q 20.953125 51.265625 25.265625 53.625 
Q 29.59375 56 35.59375 56 
Q 45.5625 56 51.78125 48.09375 
Q 58.015625 40.1875 58.015625 27.296875 
Q 58.015625 14.40625 51.78125 6.484375 
Q 45.5625 -1.421875 35.59375 -1.421875 
Q 29.59375 -1.421875 25.265625 0.953125 
Q 20.953125 3.328125 18.109375 8.203125 
z
M 48.6875 27.296875 
Q 48.6875 37.203125 44.609375 42.84375 
Q 40.53125 48.484375 33.40625 48.484375 
Q 26.265625 48.484375 22.1875 42.84375 
Q 18.109375 37.203125 18.109375 27.296875 
Q 18.109375 17.390625 22.1875 11.75 
Q 26.265625 6.109375 33.40625 6.109375 
Q 40.53125 6.109375 44.609375 11.75 
Q 48.6875 17.390625 48.6875 27.296875 
z
" id="DejaVuSans-112"/>
     </defs>
     <g transform="translate(267.502813 237.791812)scale(0.1 -0.1)">
      <use xlink:href="#DejaVuSans-104"/>
      <use x="63.378906" xlink:href="#DejaVuSans-97"/>
      <use x="124.658203" xlink:href="#DejaVuSans-110"/>
      <use x="188.037109" xlink:href="#DejaVuSans-100"/>
      <use x="251.513672" xlink:href="#DejaVuSans-99"/>
      <use x="306.494141" xlink:href="#DejaVuSans-108"/>
      <use x="334.277344" xlink:href="#DejaVuSans-97"/>
      <use x="395.556641" xlink:href="#DejaVuSans-112"/>
      <use x="459.033203" xlink:href="#DejaVuSans-112"/>
      <use x="522.509766" xlink:href="#DejaVuSans-105"/>
      <use x="550.292969" xlink:href="#DejaVuSans-110"/>
      <use x="613.671875" xlink:href="#DejaVuSans-103"/>
      <use x="677.148438" xlink:href="#DejaVuSans-32"/>
      <use x="708.935547" xlink:href="#DejaVuSans-40"/>
      <use x="747.949219" xlink:href="#DejaVuSans-97"/>
      <use x="809.228516" xlink:href="#DejaVuSans-114"/>
      <use x="850.310547" xlink:href="#DejaVuSans-101"/>
      <use x="911.833984" xlink:href="#DejaVuSans-97"/>
      <use x="973.113281" xlink:href="#DejaVuSans-32"/>
      <use x="1004.900391" xlink:href="#DejaVuSans-61"/>
      <use x="1088.689453" xlink:href="#DejaVuSans-32"/>
      <use x="1120.476562" xlink:href="#DejaVuSans-48"/>
      <use x="1184.099609" xlink:href="#DejaVuSans-46"/>
      <use x="1215.886719" xlink:href="#DejaVuSans-56"/>
      <use x="1279.509766" xlink:href="#DejaVuSans-55"/>
      <use x="1343.132812" xlink:href="#DejaVuSans-41"/>
     </g>
    </g>
    <g id="line2d_27">
     <path d="M 239.502813 248.969938 
L 259.502813 248.969938 
" style="fill:none;stroke:#d62728;stroke-linecap:square;stroke-width:2;"/>
    </g>
    <g id="line2d_28"/>
    <g id="text_19">
     <!-- handwaving (area = 0.91) -->
     <defs>
      <path d="M 4.203125 54.6875 
L 13.1875 54.6875 
L 24.421875 12.015625 
L 35.59375 54.6875 
L 46.1875 54.6875 
L 57.421875 12.015625 
L 68.609375 54.6875 
L 77.59375 54.6875 
L 63.28125 0 
L 52.6875 0 
L 40.921875 44.828125 
L 29.109375 0 
L 18.5 0 
z
" id="DejaVuSans-119"/>
     </defs>
     <g transform="translate(267.502813 252.469938)scale(0.1 -0.1)">
      <use xlink:href="#DejaVuSans-104"/>
      <use x="63.378906" xlink:href="#DejaVuSans-97"/>
      <use x="124.658203" xlink:href="#DejaVuSans-110"/>
      <use x="188.037109" xlink:href="#DejaVuSans-100"/>
      <use x="251.513672" xlink:href="#DejaVuSans-119"/>
      <use x="333.300781" xlink:href="#DejaVuSans-97"/>
      <use x="394.580078" xlink:href="#DejaVuSans-118"/>
      <use x="453.759766" xlink:href="#DejaVuSans-105"/>
      <use x="481.542969" xlink:href="#DejaVuSans-110"/>
      <use x="544.921875" xlink:href="#DejaVuSans-103"/>
      <use x="608.398438" xlink:href="#DejaVuSans-32"/>
      <use x="640.185547" xlink:href="#DejaVuSans-40"/>
      <use x="679.199219" xlink:href="#DejaVuSans-97"/>
      <use x="740.478516" xlink:href="#DejaVuSans-114"/>
      <use x="781.560547" xlink:href="#DejaVuSans-101"/>
      <use x="843.083984" xlink:href="#DejaVuSans-97"/>
      <use x="904.363281" xlink:href="#DejaVuSans-32"/>
      <use x="936.150391" xlink:href="#DejaVuSans-61"/>
      <use x="1019.939453" xlink:href="#DejaVuSans-32"/>
      <use x="1051.726562" xlink:href="#DejaVuSans-48"/>
      <use x="1115.349609" xlink:href="#DejaVuSans-46"/>
      <use x="1147.136719" xlink:href="#DejaVuSans-57"/>
      <use x="1210.759766" xlink:href="#DejaVuSans-49"/>
      <use x="1274.382812" xlink:href="#DejaVuSans-41"/>
     </g>
    </g>
    <g id="line2d_29">
     <path d="M 239.502813 263.648063 
L 259.502813 263.648063 
" style="fill:none;stroke:#9467bd;stroke-linecap:square;stroke-width:2;"/>
    </g>
    <g id="line2d_30"/>
    <g id="text_20">
     <!-- jogging (area = 0.85) -->
     <defs>
      <path d="M 9.421875 54.6875 
L 18.40625 54.6875 
L 18.40625 -0.984375 
Q 18.40625 -11.421875 14.421875 -16.109375 
Q 10.453125 -20.796875 1.609375 -20.796875 
L -1.8125 -20.796875 
L -1.8125 -13.1875 
L 0.59375 -13.1875 
Q 5.71875 -13.1875 7.5625 -10.8125 
Q 9.421875 -8.453125 9.421875 -0.984375 
z
M 9.421875 75.984375 
L 18.40625 75.984375 
L 18.40625 64.59375 
L 9.421875 64.59375 
z
" id="DejaVuSans-106"/>
      <path d="M 10.796875 72.90625 
L 49.515625 72.90625 
L 49.515625 64.59375 
L 19.828125 64.59375 
L 19.828125 46.734375 
Q 21.96875 47.46875 24.109375 47.828125 
Q 26.265625 48.1875 28.421875 48.1875 
Q 40.625 48.1875 47.75 41.5 
Q 54.890625 34.8125 54.890625 23.390625 
Q 54.890625 11.625 47.5625 5.09375 
Q 40.234375 -1.421875 26.90625 -1.421875 
Q 22.3125 -1.421875 17.546875 -0.640625 
Q 12.796875 0.140625 7.71875 1.703125 
L 7.71875 11.625 
Q 12.109375 9.234375 16.796875 8.0625 
Q 21.484375 6.890625 26.703125 6.890625 
Q 35.15625 6.890625 40.078125 11.328125 
Q 45.015625 15.765625 45.015625 23.390625 
Q 45.015625 31 40.078125 35.4375 
Q 35.15625 39.890625 26.703125 39.890625 
Q 22.75 39.890625 18.8125 39.015625 
Q 14.890625 38.140625 10.796875 36.28125 
z
" id="DejaVuSans-53"/>
     </defs>
     <g transform="translate(267.502813 267.148063)scale(0.1 -0.1)">
      <use xlink:href="#DejaVuSans-106"/>
      <use x="27.783203" xlink:href="#DejaVuSans-111"/>
      <use x="88.964844" xlink:href="#DejaVuSans-103"/>
      <use x="152.441406" xlink:href="#DejaVuSans-103"/>
      <use x="215.917969" xlink:href="#DejaVuSans-105"/>
      <use x="243.701172" xlink:href="#DejaVuSans-110"/>
      <use x="307.080078" xlink:href="#DejaVuSans-103"/>
      <use x="370.556641" xlink:href="#DejaVuSans-32"/>
      <use x="402.34375" xlink:href="#DejaVuSans-40"/>
      <use x="441.357422" xlink:href="#DejaVuSans-97"/>
      <use x="502.636719" xlink:href="#DejaVuSans-114"/>
      <use x="543.71875" xlink:href="#DejaVuSans-101"/>
      <use x="605.242188" xlink:href="#DejaVuSans-97"/>
      <use x="666.521484" xlink:href="#DejaVuSans-32"/>
      <use x="698.308594" xlink:href="#DejaVuSans-61"/>
      <use x="782.097656" xlink:href="#DejaVuSans-32"/>
      <use x="813.884766" xlink:href="#DejaVuSans-48"/>
      <use x="877.507812" xlink:href="#DejaVuSans-46"/>
      <use x="909.294922" xlink:href="#DejaVuSans-56"/>
      <use x="972.917969" xlink:href="#DejaVuSans-53"/>
      <use x="1036.541016" xlink:href="#DejaVuSans-41"/>
     </g>
    </g>
    <g id="line2d_31">
     <path d="M 239.502813 278.326188 
L 259.502813 278.326188 
" style="fill:none;stroke:#8c564b;stroke-linecap:square;stroke-width:2;"/>
    </g>
    <g id="line2d_32"/>
    <g id="text_21">
     <!-- running (area = 0.80) -->
     <g transform="translate(267.502813 281.826188)scale(0.1 -0.1)">
      <use xlink:href="#DejaVuSans-114"/>
      <use x="41.113281" xlink:href="#DejaVuSans-117"/>
      <use x="104.492188" xlink:href="#DejaVuSans-110"/>
      <use x="167.871094" xlink:href="#DejaVuSans-110"/>
      <use x="231.25" xlink:href="#DejaVuSans-105"/>
      <use x="259.033203" xlink:href="#DejaVuSans-110"/>
      <use x="322.412109" xlink:href="#DejaVuSans-103"/>
      <use x="385.888672" xlink:href="#DejaVuSans-32"/>
      <use x="417.675781" xlink:href="#DejaVuSans-40"/>
      <use x="456.689453" xlink:href="#DejaVuSans-97"/>
      <use x="517.96875" xlink:href="#DejaVuSans-114"/>
      <use x="559.050781" xlink:href="#DejaVuSans-101"/>
      <use x="620.574219" xlink:href="#DejaVuSans-97"/>
      <use x="681.853516" xlink:href="#DejaVuSans-32"/>
      <use x="713.640625" xlink:href="#DejaVuSans-61"/>
      <use x="797.429688" xlink:href="#DejaVuSans-32"/>
      <use x="829.216797" xlink:href="#DejaVuSans-48"/>
      <use x="892.839844" xlink:href="#DejaVuSans-46"/>
      <use x="924.626953" xlink:href="#DejaVuSans-56"/>
      <use x="988.25" xlink:href="#DejaVuSans-48"/>
      <use x="1051.873047" xlink:href="#DejaVuSans-41"/>
     </g>
    </g>
    <g id="line2d_33">
     <path d="M 239.502813 293.004312 
L 259.502813 293.004312 
" style="fill:none;stroke:#e377c2;stroke-linecap:square;stroke-width:2;"/>
    </g>
    <g id="line2d_34"/>
    <g id="text_22">
     <!-- walking (area = 0.84) -->
     <g transform="translate(267.502813 296.504312)scale(0.1 -0.1)">
      <use xlink:href="#DejaVuSans-119"/>
      <use x="81.787109" xlink:href="#DejaVuSans-97"/>
      <use x="143.066406" xlink:href="#DejaVuSans-108"/>
      <use x="170.849609" xlink:href="#DejaVuSans-107"/>
      <use x="228.759766" xlink:href="#DejaVuSans-105"/>
      <use x="256.542969" xlink:href="#DejaVuSans-110"/>
      <use x="319.921875" xlink:href="#DejaVuSans-103"/>
      <use x="383.398438" xlink:href="#DejaVuSans-32"/>
      <use x="415.185547" xlink:href="#DejaVuSans-40"/>
      <use x="454.199219" xlink:href="#DejaVuSans-97"/>
      <use x="515.478516" xlink:href="#DejaVuSans-114"/>
      <use x="556.560547" xlink:href="#DejaVuSans-101"/>
      <use x="618.083984" xlink:href="#DejaVuSans-97"/>
      <use x="679.363281" xlink:href="#DejaVuSans-32"/>
      <use x="711.150391" xlink:href="#DejaVuSans-61"/>
      <use x="794.939453" xlink:href="#DejaVuSans-32"/>
      <use x="826.726562" xlink:href="#DejaVuSans-48"/>
      <use x="890.349609" xlink:href="#DejaVuSans-46"/>
      <use x="922.136719" xlink:href="#DejaVuSans-56"/>
      <use x="985.759766" xlink:href="#DejaVuSans-52"/>
      <use x="1049.382812" xlink:href="#DejaVuSans-41"/>
     </g>
    </g>
   </g>
  </g>
 </g>
 <defs>
  <clipPath id="p6080a992e4">
   <rect height="266.112" width="357.12" x="57.6" y="41.472"/>
  </clipPath>
 </defs>
</svg>
